<svg width="81" height="80" viewBox="0 0 81 80" fill="none" xmlns="http://www.w3.org/2000/svg">
<path d="M50.2119 29.4132C42.9973 29.4132 27.392 27.5459 27.392 27.5459C27.392 27.5459 24.2718 30.9628 22.4681 32.7583C19.1079 36.1034 19.4001 40.3372 18.9546 45.6178C19.5083 60.2945 28.9468 71.9886 40.5461 71.9886C52.0787 71.9886 61.4794 60.4256 62.1269 45.862C61.492 39.3443 57.0838 29.4132 50.2119 29.4132Z" fill="#F7DECE"/>
<path d="M40.5472 64.8057C36.314 64.8057 34.0991 62.723 33.861 62.4842C33.5204 62.1499 33.3272 61.6946 33.3238 61.2185C33.3204 60.7424 33.5071 60.2844 33.8429 59.9453C34.1788 59.6062 34.6361 59.4139 35.1144 59.4105C35.5927 59.4071 36.0528 59.5931 36.3934 59.9274C36.4853 60.0118 37.8471 61.2147 40.5472 61.2147C43.2869 61.2147 44.6469 59.9758 44.7046 59.9238C45.051 59.6007 45.5105 59.4253 45.985 59.4351C46.4596 59.4448 46.9114 59.6389 47.2442 59.9758C47.5742 60.3113 47.758 60.7627 47.756 61.2322C47.754 61.7017 47.5662 62.1516 47.2333 62.4842C46.9952 62.723 44.7804 64.8057 40.5472 64.8057ZM42.3508 55.8281H38.7435C38.2652 55.8281 37.8064 55.639 37.4681 55.3023C37.1299 54.9655 36.9398 54.5088 36.9398 54.0326C36.9398 53.5565 37.1299 53.0998 37.4681 52.763C37.8064 52.4263 38.2652 52.2371 38.7435 52.2371H42.3508C42.8292 52.2371 43.2879 52.4263 43.6262 52.763C43.9644 53.0998 44.1545 53.5565 44.1545 54.0326C44.1545 54.5088 43.9644 54.9655 43.6262 55.3023C43.2879 55.639 42.8292 55.8281 42.3508 55.8281Z" fill="#C1694F"/>
<path d="M31.5282 48.6454C31.0499 48.6454 30.5911 48.4563 30.2529 48.1195C29.9146 47.7828 29.7246 47.3261 29.7246 46.8499V43.2588C29.7246 42.7826 29.9146 42.3259 30.2529 41.9892C30.5911 41.6525 31.0499 41.4633 31.5282 41.4633C32.0066 41.4633 32.4653 41.6525 32.8036 41.9892C33.1419 42.3259 33.3319 42.7826 33.3319 43.2588V46.8499C33.3319 47.3261 33.1419 47.7828 32.8036 48.1195C32.4653 48.4563 32.0066 48.6454 31.5282 48.6454ZM49.5648 48.6454C49.0865 48.6454 48.6277 48.4563 48.2894 48.1195C47.9512 47.7828 47.7611 47.3261 47.7611 46.8499V43.2588C47.7611 42.7826 47.9512 42.3259 48.2894 41.9892C48.6277 41.6525 49.0865 41.4633 49.5648 41.4633C50.0432 41.4633 50.5019 41.6525 50.8402 41.9892C51.1784 42.3259 51.3684 42.7826 51.3684 43.2588V46.8499C51.3684 47.3261 51.1784 47.7828 50.8402 48.1195C50.5019 48.4563 50.0432 48.6454 49.5648 48.6454Z" fill="#662113"/>
<path d="M40.5426 14.6801C55.3416 14.6801 64.587 25.5501 64.587 34.6086C64.587 43.6653 62.7365 47.2922 60.8878 43.6653C59.0373 40.0437 57.1886 34.6248 57.1886 34.6248C57.1886 34.6248 50.9154 38.6701 46.0005 32.7951C46.0005 32.7951 47.943 43.6653 36.8433 32.7951C36.8433 32.7951 38.6938 40.0437 27.5959 30.9853C27.5959 30.9853 22.0461 34.6086 20.1973 43.6653C19.6851 46.1807 16.498 43.6653 16.498 34.6086C16.4963 25.5501 23.8948 14.6801 40.5426 14.6801Z" fill="#577CFF"/>
<path d="M50.8471 56.3963C51.2266 56.3963 51.5341 56.0901 51.5341 55.7124C51.5341 55.3347 51.2266 55.0285 50.8471 55.0285C50.4677 55.0285 50.1602 55.3347 50.1602 55.7124C50.1602 56.0901 50.4677 56.3963 50.8471 56.3963Z" fill="#FF9494"/>
<path d="M51.8777 57.7647C52.0674 57.7647 52.2212 57.6116 52.2212 57.4228C52.2212 57.2339 52.0674 57.0808 51.8777 57.0808C51.688 57.0808 51.5342 57.2339 51.5342 57.4228C51.5342 57.6116 51.688 57.7647 51.8777 57.7647Z" fill="#FF9494"/>
<path d="M50.5031 60.5003C51.0723 60.5003 51.5336 60.041 51.5336 59.4745C51.5336 58.9079 51.0723 58.4486 50.5031 58.4486C49.934 58.4486 49.4727 58.9079 49.4727 59.4745C49.4727 60.041 49.934 60.5003 50.5031 60.5003Z" fill="#FF9494"/>
<path d="M53.5952 60.4997C53.9746 60.4997 54.2822 60.1935 54.2822 59.8158C54.2822 59.4381 53.9746 59.1319 53.5952 59.1319C53.2158 59.1319 52.9082 59.4381 52.9082 59.8158C52.9082 60.1935 53.2158 60.4997 53.5952 60.4997Z" fill="#FF9494"/>
<path d="M55.3117 58.448C55.8808 58.448 56.3422 57.9887 56.3422 57.4222C56.3422 56.8556 55.8808 56.3963 55.3117 56.3963C54.7426 56.3963 54.2812 56.8556 54.2812 57.4222C54.2812 57.9887 54.7426 58.448 55.3117 58.448Z" fill="#FF9494"/>
</svg>
