<svg width="80" height="80" viewBox="0 0 80 80" fill="none" xmlns="http://www.w3.org/2000/svg">
<path d="M41.0018 55.6347C41.0018 55.1469 40.8227 54.6865 40.4101 54.3795C40.1223 54.1652 39.8698 53.927 39.6715 53.66C39.5564 53.5065 39.4588 53.3482 39.3756 53.1884C39.2813 53.0028 39.2061 52.8174 39.147 52.6335C39.0799 52.4224 39.0319 52.2146 38.9967 52.0115C38.9567 51.7797 38.9359 51.5559 38.9216 51.3368C38.9072 51.0889 38.904 50.8524 38.904 50.6253C38.904 50.4159 38.9023 50.2128 38.9023 50.0273V49.8929V48.9575V48.5866C38.9023 48.5866 38.9023 43.4381 38.9023 41.6442C38.9023 40.7952 38.6577 40.0101 37.9063 39.2586C36.229 37.5813 33.6532 38.2305 33.4997 38.1809L27.6701 39.5976C29.1794 41.6538 31.29 43.2974 33.8594 44.2376V46.4041C25.1614 48.8504 18.8457 56.378 18.8457 67.0013H27.104H32.8298V65.7619C32.8298 65.1111 32.8634 64.5162 32.9338 63.9695C33.0026 63.4213 33.1097 62.9192 33.2601 62.4587C33.3607 62.1517 33.4823 61.8623 33.6246 61.5905C33.8148 61.2275 34.0484 60.8998 34.3202 60.6119C34.4768 60.4473 35.6185 59.1617 37.2717 59.1617C39.9289 59.1619 41.0018 57.7964 41.0018 55.6347Z" fill="#F7DECE"/>
<path d="M45.6477 46.1754V42.968C48.1019 41.4154 50.4971 36.7147 50.4971 31.0563V27.3627C50.1358 19.9663 43.8458 14.263 36.4493 14.6244C29.3293 14.973 23.7796 20.8169 23.7012 27.852L20.756 31.894C20.5162 32.2121 20.4011 32.5608 20.5914 32.9269C20.7881 33.2995 21.2022 33.3683 21.538 33.4194L23.9635 33.7887L24.1921 36.0911C24.1921 36.0911 33.5936 36.1264 35.1109 36.1264C41.4969 36.1264 41.1404 37.8659 41.1404 41.6441C41.1404 43.438 41.1404 48.262 41.1404 48.262V48.481C41.1404 48.6889 41.1372 48.8904 41.1372 49.0806C41.1372 49.314 41.1564 49.5331 41.1564 49.7281C41.1564 50.1406 41.545 50.5803 41.6041 50.6523C41.6377 50.6923 41.6777 50.7307 41.7257 50.7722C41.78 50.817 41.8472 50.8617 41.9335 50.9081C42.031 50.9624 42.1541 51.0153 42.3076 51.0648C42.4835 51.1207 42.7025 51.1703 42.9648 51.2087C43.1694 51.2359 43.4028 51.2582 43.6667 51.2678C44.1416 51.2422 44.6612 51.2726 45.1936 51.3957C48.7176 52.2047 51.2054 57.737 47.6783 62.03C44.1496 66.3232 39.0075 64.8343 36.9129 63.6064C36.4061 63.3106 35.5155 62.8373 35.3493 63.4881C35.2805 63.7568 35.2325 64.0667 35.1941 64.4153C35.1526 64.814 35.1285 65.2616 35.1301 65.7619V67.0007H51.7235H61.5487C61.5486 56.0198 54.7997 48.3467 45.6477 46.1754Z" fill="#F7DECE"/>
<mask id="mask0_6_36" style="mask-type:alpha" maskUnits="userSpaceOnUse" x="18" y="14" width="44" height="54">
<path d="M41.0027 55.6347C41.0027 55.1469 40.8236 54.6865 40.4111 54.3795C40.1233 54.1652 39.8707 53.927 39.6724 53.66C39.5573 53.5065 39.4598 53.3482 39.3766 53.1884C39.2822 53.0029 39.2071 52.8174 39.148 52.6335C39.0808 52.4224 39.0328 52.2146 38.9977 52.0116C38.9577 51.7797 38.9368 51.5559 38.9226 51.3368C38.9081 51.089 38.905 50.8524 38.905 50.6254C38.905 50.4159 38.9033 50.2128 38.9033 50.0273V49.893V48.9575V48.5866C38.9033 48.5866 38.9033 43.4381 38.9033 41.6442C38.9033 40.7952 38.6586 40.0101 37.9073 39.2586C36.23 37.5814 33.6541 38.2305 33.5006 38.181L27.6711 39.5976C29.1804 41.6538 31.2909 43.2974 33.8603 44.2377V46.4042C25.1624 48.8504 18.8467 56.3781 18.8467 67.0013H27.105H32.8308V65.7619C32.8308 65.1111 32.8643 64.5162 32.9347 63.9695C33.0035 63.4213 33.1107 62.9192 33.261 62.4587C33.3617 62.1517 33.4833 61.8623 33.6256 61.5905C33.8158 61.2276 34.0493 60.8998 34.3211 60.612C34.4778 60.4473 35.6194 59.1617 37.2727 59.1617C39.9299 59.1619 41.0027 57.7965 41.0027 55.6347Z" fill="white"/>
<path d="M45.6486 46.1754V42.968C48.1029 41.4154 50.4981 36.7147 50.4981 31.0563V27.3627C50.1368 19.9663 43.8467 14.263 36.4503 14.6244C29.3303 14.973 23.7806 20.8169 23.7022 27.852L20.7571 31.894C20.5172 32.2121 20.4021 32.5608 20.5924 32.9269C20.7891 33.2995 21.2032 33.3683 21.539 33.4194L23.9645 33.7887L24.1931 36.0911C24.1931 36.0911 33.5946 36.1264 35.1119 36.1264C41.4979 36.1264 41.1413 37.8659 41.1413 41.6441C41.1413 43.438 41.1413 48.262 41.1413 48.262V48.481C41.1413 48.6889 41.1381 48.8904 41.1381 49.0806C41.1381 49.314 41.1574 49.5331 41.1574 49.7281C41.1574 50.1406 41.546 50.5803 41.6051 50.6523C41.6387 50.6923 41.6787 50.7307 41.7267 50.7722C41.781 50.817 41.8482 50.8617 41.9345 50.9081C42.0321 50.9624 42.1551 51.0153 42.3086 51.0648C42.4845 51.1208 42.7035 51.1703 42.9658 51.2087C43.1705 51.2359 43.4039 51.2582 43.6677 51.2678C44.1426 51.2422 44.6622 51.2726 45.1946 51.3957C48.7186 52.2047 51.2065 57.737 47.6792 62.03C44.1505 66.3232 39.0085 64.8343 36.9139 63.6064C36.4071 63.3106 35.5165 62.8373 35.3502 63.4881C35.2814 63.7568 35.2334 64.0667 35.1951 64.4153C35.1536 64.814 35.1295 65.2616 35.1312 65.7619V67.0007H51.7244H61.5497C61.5496 56.0198 54.8007 48.3467 45.6486 46.1754Z" fill="#F7DECE"/>
</mask>
<g mask="url(#mask0_6_36)">
<path d="M61.5497 46.0739H18.8467V67.4254H61.5497V46.0739Z" fill="#577CFF"/>
</g>
</svg>
