<svg width="80" height="80" viewBox="0 0 80 80" fill="none" xmlns="http://www.w3.org/2000/svg">
<path d="M29.9987 30.6239L30.3408 30.5946C30.4703 30.5799 30.5876 30.5335 30.6853 30.4651L30.6829 30.4676C31.0104 31.5966 31.4111 32.7842 31.9121 34.0281C32.5548 35.6556 33.1877 36.9923 33.8964 38.2825L33.7986 38.087C33.7399 38.9766 33.6691 39.8905 33.5763 40.7751C33.5323 41.3201 33.4247 41.8283 33.261 42.3073L33.2732 42.2633C33.2439 42.2756 33.2024 47.3462 33.2024 47.3462C33.2048 50.6526 35.4946 53.4213 38.5736 54.1569L38.6225 54.1666C38.7618 53.8123 39.099 53.5655 39.4949 53.5655H40.8976C41.2911 53.5703 41.6283 53.8147 41.7676 54.1593L41.77 54.1666C44.9053 53.4286 47.2048 50.6599 47.217 47.3511C47.217 47.3511 47.1315 42.3 47.0875 42.2658C46.9531 41.8381 46.8456 41.3347 46.7893 40.8166L46.7869 40.78C46.7014 39.8905 46.6452 38.9985 46.5646 38.0919C47.1681 37.002 47.8011 35.6677 48.3582 34.2919L48.4511 34.0329C48.9521 32.7891 49.3406 31.6039 49.6803 30.4724C49.7756 30.5409 49.8929 30.5873 50.0199 30.602H50.0224L50.3669 30.6313C50.7824 30.6752 51.149 30.3331 51.1832 29.8029L51.5546 25.0841C51.5546 25.0816 51.5546 25.0792 51.5546 25.0792C51.5546 24.6808 51.2565 24.3534 50.8728 24.3045H50.8679H50.8264C50.9217 23.6178 50.9754 22.8261 50.9754 22.0221C50.9754 20.2675 50.7164 18.5716 50.235 16.9758L50.2667 17.1004C48.8568 14.0067 46.0612 11.7609 42.6937 11.1329L42.6302 11.1232C41.9069 10.9741 41.0638 10.8739 40.2036 10.8495H40.1816H40.1523C39.275 10.8665 38.4319 10.9643 37.6157 11.1378L37.7037 11.1232C34.2776 11.7683 31.4869 14.014 30.094 17.0345L30.0671 17.1004C29.6125 18.5667 29.3511 20.2528 29.3511 21.9976C29.3511 22.8114 29.4072 23.6129 29.5172 24.3949L29.5074 24.3045C29.1189 24.3485 28.8184 24.6735 28.8184 25.0694V25.0865L29.1898 29.8053C29.224 30.3478 29.5954 30.6752 29.9962 30.6313L29.9987 30.6239Z" fill="#F7DECE"/>
<path d="M66.3789 61.8552C66.2081 54.4263 65.4652 52.745 65.064 51.6062C64.9052 51.1493 64.7757 48.0604 59.6734 46.0566C56.5455 44.8249 52.5085 44.8005 49.0921 43.3563V47.3737C49.0848 51.6942 45.9911 55.2889 41.8979 56.0733L41.8417 56.0831C41.7659 56.5279 41.3847 56.8602 40.9278 56.8651H40.8838V59.8953C40.8838 62.8571 43.2834 65.2565 46.2452 65.2565C49.207 65.2565 51.6067 62.8571 51.6067 59.8953V57.779C50.121 57.5566 48.9944 56.2908 48.9944 54.7611C48.9944 53.0773 50.3605 51.7113 52.0441 51.7113C53.7279 51.7113 55.0939 53.0773 55.0939 54.7611C55.0939 56.0953 54.2361 57.2292 53.0436 57.6446L53.0217 57.652V59.8953V60.0102C53.0217 63.7536 49.9866 66.7892 46.2428 66.7892C42.4991 66.7892 39.464 63.7536 39.464 60.0102C39.464 59.9686 39.464 59.9295 39.464 59.8879V59.8928V56.8357C39.029 56.8064 38.6771 56.479 38.6087 56.0587V56.0538C34.4788 55.2498 31.3997 51.6673 31.3899 47.3639V43.3147C27.959 44.7883 23.8975 44.8176 20.7525 46.0517C15.6353 48.0531 15.518 51.1346 15.3617 51.5989C14.9707 52.7425 14.218 54.4165 14.0469 61.8503C14.0176 62.8277 14.0469 64.3257 16.994 65.6356C23.4113 68.1524 31.6783 68.9346 39.8281 69.4965H40.6101C48.7769 68.9397 57.0318 68.16 63.4441 65.6356C66.3789 64.3333 66.4055 62.8424 66.3789 61.8552ZM30.5029 58.8249H27.458V61.882H25.2831V58.8347H22.2382V56.6598H25.2831V53.615H27.458V56.6598H30.5029V58.8249Z" fill="#577CFF"/>
<path d="M53.6936 54.7348C53.6936 53.8258 52.958 53.0878 52.0489 53.0878C51.1398 53.0878 50.4043 53.8234 50.4043 54.7324C50.4043 55.6415 51.1398 56.377 52.0489 56.377C52.9555 56.377 53.6911 55.6415 53.6936 54.7348Z" fill="black"/>
</svg>
