<svg width="80" height="80" viewBox="0 0 80 80" fill="none" xmlns="http://www.w3.org/2000/svg">
<mask id="mask0_6_64" style="mask-type:alpha" maskUnits="userSpaceOnUse" x="0" y="0" width="80" height="80">
<path d="M40.1259 79.7873C61.9851 79.7873 79.7054 61.9263 79.7054 39.8937C79.7054 17.861 61.9851 0 40.1259 0C18.2667 0 0.546387 17.861 0.546387 39.8937C0.546387 61.9263 18.2667 79.7873 40.1259 79.7873Z" fill="url(#paint0_linear_6_64)"/>
</mask>
<g mask="url(#mask0_6_64)">
<path d="M48.9268 41.8328H40.7627C37.4688 41.8328 34.6396 44.6863 34.6396 48.0045V82.981H54.2122V66.3975L55.0517 63.1531V48.0045C55.0517 44.6844 52.2207 41.8328 48.9268 41.8328Z" fill="#577CFF"/>
<path d="M41.3539 46.8738C39.1613 46.8738 37.0586 47.7517 35.5083 49.3143C33.9579 50.877 33.0869 52.9964 33.0869 55.2063C33.0869 57.4163 33.9579 59.5357 35.5083 61.0983C37.0586 62.661 39.1613 63.539 41.3539 63.539V46.8738Z" fill="#0072DB"/>
<path d="M41.3552 48.7252C39.6498 48.7252 38.0144 49.408 36.8085 50.6234C35.6027 51.8388 34.9253 53.4872 34.9253 55.2061C34.9253 56.925 35.6027 58.5734 36.8085 59.7888C38.0144 61.0042 39.6498 61.687 41.3552 61.687V48.7252Z" fill="#577CFF"/>
<path d="M45.0292 46.8738C42.8366 46.8738 40.7339 47.7517 39.1835 49.3143C37.6332 50.877 36.7622 52.9964 36.7622 55.2063C36.7622 57.4163 37.6332 59.5357 39.1835 61.0983C40.7339 62.661 42.8366 63.539 45.0292 63.539V46.8738Z" fill="#0072DB"/>
<path d="M45.029 48.7252C43.3237 48.7252 41.6882 49.408 40.4824 50.6234C39.2765 51.8388 38.5991 53.4872 38.5991 55.2061C38.5991 56.925 39.2765 58.5734 40.4824 59.7888C41.6882 61.0042 43.3237 61.687 45.029 61.687V48.7252Z" fill="#577CFF"/>
<path d="M29.9897 82.981H43.1324V56.5943C42.2884 56.4456 41.4337 56.3683 40.577 56.3629C36.51 56.3629 32.6097 57.9912 29.734 60.8898C26.8582 63.7886 25.2427 67.7194 25.2427 71.819C25.2427 76.2108 27.0688 80.1663 29.9897 82.981Z" fill="#0072DB"/>
<path d="M42.8047 49.9674V58.2833C42.0687 58.1541 41.3233 58.0866 40.5763 58.0815C38.7863 58.0812 37.0139 58.4364 35.3602 59.1267C33.7065 59.817 32.2039 60.8289 30.9383 62.1046C29.6726 63.3803 28.6687 64.8946 27.9838 66.5619C27.299 68.2286 26.9466 70.0153 26.9468 71.8191C26.947 74.0032 27.4647 76.1556 28.4569 78.0965C29.4491 80.0381 30.887 81.713 32.651 82.981H52.3007V44.7123L42.8047 49.9674Z" fill="#577CFF"/>
<path d="M53.1827 45.9474L62.0927 55.417L54.2153 63.7702L54.2115 69.4102L46.9734 74.3613L42.1216 66.6972L52.492 55.9391L48.9299 52.3783L53.1827 45.9474Z" fill="#0072DB"/>
<path d="M53.1806 43.6322L63.2188 54.1757C63.2188 54.1757 66.7035 57.005 63.2188 60.3474C61.1261 62.3527 48.0146 71.254 48.0146 71.254L43.9326 67.1391L55.0544 56.2329L48.9295 50.0612L53.1806 43.6322Z" fill="#577CFF"/>
<path d="M45.6363 67.2991C43.5714 66.3086 41.6131 66.4451 39.719 67.5619C38.8133 68.0972 38.4441 69.0972 39.8311 69.4286C41.2236 69.7562 45.6363 67.2991 45.6363 67.2991Z" fill="#EEC2AD"/>
<path d="M48.4196 70.8502C48.675 74.1187 44.3302 77.1721 41.0345 76.774C38.6793 76.4889 36.6291 70.0927 39.4233 69.2686C41.9144 68.5359 42.6033 66.2546 45.5593 67.106C47.907 67.7841 48.3259 69.5949 48.4196 70.8502Z" fill="#F7DECE"/>
<path d="M46.24 72.1143L45.8505 71.2978C45.8505 71.2978 44.4341 73.4216 42.4647 74.2419C40.9711 74.8565 39.7127 74.9175 39.0532 74.8083C39.3361 75.3511 39.3417 75.4438 39.7127 75.7899C41.7648 75.8622 45.044 74.753 46.24 72.1143ZM42.1671 72.0419C43.9858 70.7867 44.5168 69.5867 44.5168 69.5867L43.9234 68.8292C43.9234 68.8292 41.8199 72.1181 38.0869 71.9492C38.1144 72.4089 38.0777 72.4978 38.2118 72.9676C38.7134 72.9848 40.6901 73.0603 42.1671 72.0419Z" fill="#E0AA94"/>
<path d="M36.897 25.2248C37.1498 25.831 37.2817 26.4815 37.2849 27.139C37.2883 27.7966 37.163 28.4484 36.9163 29.0571C36.6696 29.6658 36.3063 30.2196 35.8472 30.6868C35.3881 31.154 34.8421 31.5254 34.2405 31.7797C33.6371 32.0304 32.9905 32.1587 32.3379 32.1573C31.6852 32.1559 31.0392 32.025 30.4368 31.7718C29.8344 31.5187 29.2873 31.1484 28.8269 30.682C28.3666 30.2157 28.0019 29.6625 27.7537 29.0541C27.501 28.4477 27.3694 27.797 27.3663 27.1393C27.3632 26.4816 27.4888 25.8296 27.7358 25.2209C27.9829 24.6121 28.3466 24.0584 28.8061 23.5914C29.2656 23.1244 29.8119 22.7532 30.4138 22.4991C31.017 22.2486 31.6633 22.1204 32.3157 22.1218C32.9682 22.1232 33.6139 22.2542 34.216 22.5074C34.8181 22.7605 35.3648 23.1309 35.8248 23.5971C36.2849 24.0634 36.6492 24.6165 36.897 25.2248Z" fill="#292F33"/>
<path d="M46.8359 38.1674C49.0459 35.5102 50.365 32.1143 49.2315 29.3701L47.3576 24.8205C37.2279 28.6646 33.0595 23.3892 33.0595 23.3892C33.0595 23.3892 35.0436 28.1998 30.7852 30.6496L33.0503 36.1454C34.9021 40.6339 37.4263 43.8484 41.8739 42.006L42.0245 42.6096C42.403 44.1224 42.1256 45.3464 44.3356 45.4316C45.8807 45.4908 47.9676 42.7096 47.5891 41.1968L46.8359 38.1674Z" fill="#F7DECE"/>
<path d="M58.6428 26.3407C60.1566 22.2633 56.5136 19.1636 53.4126 18.8451C51.5314 18.6525 49.8339 19.8617 49.0072 21.3097C45.2393 14.951 39.6031 16.449 36.0171 17.7211C32.2179 19.0692 26.567 23.0336 28.7844 27.2943C31.0018 31.5569 38.4071 29.7238 38.4071 29.7238L41.0875 34.0789C40.3636 30.3311 42.8327 29.4941 43.9735 30.3107C45.175 31.1718 44.3777 33.9326 44.9252 35.0214C45.4726 36.1102 47.3685 37.6026 47.3685 37.6026C48.5332 36.1102 52.2093 30.9773 50.4916 24.7612C51.2026 24.4927 52.2699 24.6742 53.1315 25.1278C55.3213 26.274 53.5963 31.9846 56.6422 33.79C59.5614 35.5213 61.2736 33.1401 61.2736 33.1401C58.2828 33.2401 57.197 30.2385 58.6428 26.3407Z" fill="#292F33"/>
<path d="M34.6346 38.1357L34.0688 38.3727C34.0096 38.3994 33.9456 38.4138 33.8807 38.4151C33.8157 38.4164 33.7512 38.4047 33.6909 38.3806C33.6305 38.3564 33.5756 38.3203 33.5293 38.2745C33.4831 38.2286 33.4463 38.1738 33.4213 38.1135C33.3963 38.0531 33.3835 37.9883 33.3838 37.9228C33.384 37.8574 33.3972 37.7926 33.4227 37.7324C33.448 37.6722 33.4851 37.6177 33.5318 37.5722C33.5784 37.5267 33.6336 37.491 33.694 37.4672L34.2617 37.2302C34.3213 37.202 34.3859 37.1864 34.4516 37.1841C34.5173 37.1818 34.5828 37.193 34.6442 37.2169C34.7056 37.2408 34.7614 37.277 34.8085 37.3234C34.8556 37.3697 34.8928 37.4251 34.9181 37.4864C34.9433 37.5476 34.9559 37.6133 34.9553 37.6796C34.9546 37.7459 34.9406 37.8114 34.9141 37.8721C34.8876 37.9328 34.8492 37.9874 34.8011 38.0327C34.7531 38.078 34.6965 38.1131 34.6346 38.1357Z" fill="#BF6952"/>
<path d="M34.9128 34.301C34.6745 34.4004 34.4069 34.4005 34.1685 34.3012C33.9302 34.2019 33.7407 34.0114 33.6416 33.7714L33.265 32.8622C33.1658 32.6216 33.1656 32.3511 33.2643 32.1103C33.363 31.8695 33.5525 31.678 33.7913 31.5781C34.03 31.4782 34.2984 31.4779 34.5374 31.5774C34.7762 31.6769 34.9662 31.868 35.0654 32.1086L35.4401 33.0159C35.4895 33.1352 35.515 33.263 35.5152 33.3923C35.5154 33.5215 35.4902 33.6495 35.4413 33.7688C35.3923 33.8883 35.3204 33.9967 35.2297 34.0881C35.1391 34.1794 35.0313 34.2517 34.9128 34.301Z" fill="#662113"/>
<path d="M35.4053 40.359C35.8517 40.9053 36.3403 41.3608 36.8676 41.7164C38.8057 40.5887 38.9417 38.8777 38.9417 38.8777L35.4971 40.3202L35.4053 40.359Z" fill="#DF1F32"/>
</g>
<defs>
<linearGradient id="paint0_linear_6_64" x1="40.1259" y1="0" x2="40.1259" y2="79.7873" gradientUnits="userSpaceOnUse">
<stop stop-color="#AFC1DC"/>
<stop offset="1" stop-color="#E2E5ED"/>
</linearGradient>
</defs>
</svg>
