<svg width="80" height="80" viewBox="0 0 80 80" fill="none" xmlns="http://www.w3.org/2000/svg">
<path d="M41.7754 51.7031C51.0437 51.7031 58.5571 44.13 58.5571 34.7882C58.5571 25.4463 51.0437 17.8733 41.7754 17.8733C32.5071 17.8733 24.9937 25.4463 24.9937 34.7882C24.9937 44.13 32.5071 51.7031 41.7754 51.7031Z" fill="#577CFF"/>
<path d="M45.9085 36.5145C45.0486 36.5145 44.3636 36.3475 43.8131 36.0901C42.9894 35.7056 42.456 35.1133 42.1202 34.5218C41.9528 34.2277 41.8369 33.9354 41.7642 33.678C41.6914 33.4214 41.6627 33.1956 41.6635 33.0608C41.6635 32.8034 41.4572 32.5955 41.2027 32.5955C40.9481 32.5955 40.7417 32.8034 40.7417 33.0608C40.7417 33.2279 40.7621 33.4121 40.8027 33.6149C40.8736 33.9703 41.0055 34.3794 41.223 34.8029C41.5467 35.4346 42.0626 36.0985 42.8339 36.6015C43.0275 36.7301 43.2346 36.8451 43.4596 36.9475C43.495 37.1017 43.5449 37.3719 43.5442 37.7001C43.5442 37.9378 43.518 38.2021 43.447 38.474C43.3758 38.7459 43.2601 39.022 43.074 39.2922C42.9311 39.5044 42.9819 39.7924 43.1915 39.9382C43.4003 40.084 43.6871 40.0321 43.8317 39.8207C44.0836 39.4549 44.2434 39.074 44.3382 38.7118C44.4321 38.3486 44.465 38.0027 44.465 37.7001C44.465 37.5492 44.4565 37.4069 44.4448 37.2791C44.8878 37.3822 45.3733 37.4436 45.9084 37.4436C46.1629 37.4436 46.3694 37.2357 46.3694 36.979C46.3695 36.7225 46.1632 36.5145 45.9085 36.5145Z" fill="#BCCBE1"/>
<path d="M47.9513 30.5383C47.7298 30.4139 47.4498 30.4906 47.3239 30.7148C47.1988 30.9373 47.2774 31.2202 47.499 31.3472C47.8388 31.5432 48.0452 31.7597 48.184 31.9839C47.6156 32.1849 47.1133 32.2686 46.6677 32.2686C46.0174 32.2677 45.4856 32.0947 45.0357 31.8288C44.5882 31.5637 44.2272 31.1998 43.9524 30.8239C43.5001 30.2017 42.9124 29.6486 42.219 29.2446C41.5256 28.8423 40.7247 28.59 39.864 28.59C39.1106 28.59 38.3165 28.7861 37.5285 29.2216C37.2071 29.399 36.9273 29.6068 36.6845 29.8345C35.7264 30.206 34.902 30.3408 34.2027 30.3408C33.2075 30.339 32.465 30.0714 31.9678 29.8071C31.7201 29.6742 31.5348 29.5429 31.4149 29.4475C31.3548 29.399 31.31 29.3615 31.2828 29.3359L31.2558 29.3095L31.2507 29.3044C31.074 29.122 30.7839 29.1168 30.6004 29.294C30.4178 29.4721 30.4127 29.7653 30.5885 29.9503C30.6156 29.9768 30.9311 30.3023 31.5373 30.6272C31.8027 30.7686 32.1275 30.9075 32.503 31.0209C32.4033 31.1623 32.267 31.3703 32.1183 31.6328C31.8334 32.1399 31.506 32.8524 31.3404 33.6904C31.2887 33.9434 31.4512 34.1872 31.7005 34.2375C31.9501 34.2887 32.1918 34.1241 32.2417 33.8726C32.3813 33.1662 32.6687 32.5371 32.9199 32.0914C33.0459 31.8663 33.1617 31.69 33.2454 31.5689C33.2877 31.5101 33.3207 31.4632 33.3435 31.4342C33.3545 31.4197 33.363 31.4096 33.368 31.4027L33.3748 31.3959L33.3756 31.3942C33.4171 31.3422 33.445 31.2834 33.4611 31.2204C33.6952 31.251 33.9413 31.2681 34.2027 31.2681C34.6863 31.2681 35.2174 31.2102 35.789 31.0797C35.504 31.6943 35.3882 32.3369 35.3872 32.9251C35.389 33.5165 35.5006 34.0552 35.7011 34.4832C35.81 34.7141 36.0849 34.8139 36.3141 34.7039C36.5432 34.5938 36.6422 34.3178 36.5331 34.0859C36.4054 33.8182 36.3072 33.3937 36.3089 32.9249C36.3081 32.4187 36.418 31.863 36.6777 31.3541C36.9389 30.8462 37.3431 30.3834 37.9714 30.0356C38.6336 29.669 39.2678 29.519 39.8639 29.5173C40.5446 29.519 41.1855 29.7166 41.7588 30.0491C42.3305 30.3808 42.8294 30.8495 43.2099 31.3719C43.5447 31.833 43.9929 32.2865 44.5688 32.6291C45.1438 32.9718 45.8507 33.1976 46.6676 33.1959C47.2079 33.1959 47.7947 33.0989 48.4273 32.8823L48.4281 32.9148C48.4281 33.1423 48.3926 33.3494 48.3579 33.4961C48.341 33.5677 48.3232 33.6265 48.3106 33.6631C48.3046 33.6819 48.3004 33.6956 48.297 33.7041L48.2946 33.7109V33.7117C48.2016 33.9494 48.3148 34.218 48.5508 34.3135C48.7875 34.4081 49.0556 34.2922 49.1502 34.0552C49.1629 34.022 49.3464 33.5575 49.349 32.9149C49.349 32.5467 49.2856 32.1137 49.0716 31.6867C48.8604 31.2576 48.4958 30.8477 47.9513 30.5383Z" fill="#BCCBE1"/>
<path d="M36.1285 27.0695C36.4457 26.6928 36.8964 26.3962 37.4096 26.1976C37.9229 25.9964 38.4946 25.8967 39.0306 25.8967C39.5516 25.8967 40.0378 25.9929 40.393 26.1609C40.6255 26.2682 40.8985 26.1661 41.0042 25.9342C41.1108 25.7015 41.0102 25.4245 40.7801 25.3189C40.266 25.0785 39.6606 24.9712 39.0306 24.9702C38.3829 24.9702 37.7081 25.087 37.0781 25.3309C36.4507 25.5745 35.8672 25.947 35.4275 26.4712C35.2617 26.6663 35.2863 26.9587 35.4799 27.124C35.6744 27.291 35.9661 27.2656 36.1285 27.0695Z" fill="#BCCBE1"/>
<path d="M43.2452 14.7274C31.8939 14.0234 22.3352 21.2212 22.5516 32.9482L22.5432 34.0095L17.6116 42.7875C17.3461 43.2605 17.3223 43.8341 17.5474 44.3285C17.7723 44.8229 18.2188 45.1782 18.7481 45.2839L21.7958 46.1311L22.7529 55.4384C22.7783 56.3359 23.1741 57.1815 23.8455 57.7704C24.5169 58.3603 25.4031 58.639 26.2877 58.5392L28.7212 58.7344C29.1964 58.6815 29.6717 58.8341 30.0276 59.1563C30.3837 59.4768 30.5875 59.9361 30.5875 60.4178V67.7321H51.1788C51.1788 67.7321 51.1788 64.1854 51.1788 62.7708C51.1788 61.3551 51.6642 58.1198 52.5825 56.6383C55.9209 51.2585 61.3548 48.3964 62.2715 37.3641C63.1892 26.33 56.6558 15.5602 43.2452 14.7274ZM56.9449 33.6471C56.4833 34.4159 55.7366 34.8949 54.9214 35.0364C54.6712 35.0808 54.502 35.3194 54.5444 35.5725C54.5892 35.8247 54.8268 35.9961 55.0771 35.9509C55.264 35.9185 55.4483 35.8717 55.6302 35.8128C55.8263 36.2227 55.9243 36.6634 55.9243 37.1023C55.9243 37.5711 55.8137 38.0365 55.6014 38.4574C55.3899 38.8777 55.0771 39.2519 54.6661 39.5433C54.1494 39.9089 53.5617 40.0827 52.9783 40.0837C52.9318 40.0837 52.886 40.0786 52.8404 40.0777C52.8302 40.0001 52.8209 39.9234 52.8074 39.8476V39.8466C52.7069 39.3088 52.498 38.8163 52.213 38.3883L52.1783 38.3364L52.131 38.2955C51.7826 37.9937 51.32 37.4994 50.9631 36.9957C50.783 36.7443 50.6301 36.4894 50.5269 36.2627C50.4229 36.0352 50.3746 35.8373 50.3764 35.7206C50.3764 35.6686 50.384 35.6327 50.3941 35.6089C50.4026 35.5859 50.411 35.5722 50.4288 35.5535C50.6081 35.3736 50.6081 35.0787 50.4288 34.8963C50.2487 34.7165 49.9578 34.7165 49.7786 34.8963C49.6652 35.0088 49.5806 35.1451 49.5291 35.2892C49.4758 35.4308 49.4563 35.5781 49.4563 35.7205C49.4579 36.0418 49.5544 36.3469 49.6896 36.6487C49.8952 37.0996 50.2012 37.5471 50.5335 37.9561C50.8457 38.3397 51.1762 38.6849 51.474 38.9491C51.6795 39.2653 51.829 39.6233 51.9027 40.0179C51.9331 40.1842 51.9492 40.3495 51.9525 40.5072V40.5106C51.9525 40.531 51.9534 40.5516 51.9534 40.5736C51.9534 41.2743 51.7056 41.9382 51.2802 42.4607C50.8541 42.9823 50.2545 43.3615 49.5434 43.4963C49.3581 43.532 49.1738 43.5491 48.9927 43.5491C48.0162 43.5499 47.1129 43.0547 46.5701 42.2689C46.8627 41.9697 47.1122 41.6194 47.3016 41.2213V41.2222C47.5375 40.7304 47.6618 40.2088 47.6838 39.6923C47.6948 39.4366 47.4986 39.2201 47.245 39.2091C46.9896 39.1972 46.7755 39.3965 46.7637 39.6523C46.7477 40.046 46.653 40.4406 46.4729 40.8173L46.472 40.8191C46.2784 41.2222 46.0095 41.5598 45.6881 41.8265L45.6865 41.8274C45.1571 42.2629 44.4899 42.5032 43.8075 42.5032C43.3781 42.5032 42.9417 42.4086 42.5273 42.2066C41.7604 41.8351 41.2276 41.1728 40.9917 40.4151H40.9909C40.9013 40.1278 40.8548 39.8253 40.8548 39.5219C40.8548 39.0881 40.9486 38.6482 41.149 38.2298C41.2598 37.9988 41.1626 37.721 40.9335 37.611C40.7051 37.4994 40.4303 37.5956 40.3195 37.8267C40.0591 38.3721 39.9331 38.9526 39.9331 39.522C39.9331 39.7981 39.9653 40.0709 40.0211 40.3376C39.6617 40.5354 39.2567 40.6623 38.8186 40.6938H38.8178C38.7459 40.699 38.6757 40.7023 38.6047 40.7023C37.9129 40.7023 37.2729 40.4603 36.7655 40.0502C36.3216 39.6923 35.9817 39.2107 35.8007 38.6499C36.1237 38.3286 36.3926 37.9511 36.5896 37.5325C36.6978 37.3006 36.5997 37.0245 36.3698 36.9154C36.1406 36.8055 35.8641 36.9043 35.7566 37.137C35.5749 37.5257 35.3093 37.8709 34.9854 38.1462C34.5238 38.5391 33.9419 38.7914 33.2943 38.8384H33.2935C33.2216 38.8434 33.1514 38.8468 33.0812 38.8468C31.6201 38.8468 30.372 37.7584 30.1605 36.3027L30.1597 36.2985V36.2959C30.1478 36.226 30.1402 36.1536 30.1352 36.0786C30.1301 36.0078 30.1276 35.9345 30.1276 35.8629C30.1276 35.6763 30.1454 35.4914 30.1784 35.3132C30.2232 35.0608 30.0584 34.8188 29.808 34.7719C29.5595 34.7268 29.3185 34.8913 29.2712 35.1436C29.2296 35.377 29.2069 35.6174 29.2069 35.8629L29.2077 35.8909C28.7934 35.8441 28.3917 35.7102 28.0323 35.498C27.5773 35.2305 27.1909 34.8384 26.9237 34.3354C26.6861 33.8862 26.5735 33.4081 26.5735 32.9342C26.5735 32.3222 26.7622 31.7215 27.1097 31.2194C27.2442 31.4102 27.3955 31.5901 27.5655 31.7588C27.9544 32.1432 28.4043 32.4278 28.8804 32.6136C29.118 32.7075 29.3836 32.588 29.4757 32.3478C29.5687 32.1091 29.4495 31.8406 29.2136 31.7477C28.8491 31.6062 28.5075 31.3898 28.2115 31.0966V31.0958C27.9493 30.8384 27.7464 30.5451 27.6017 30.2306C27.4158 29.8317 27.3228 29.398 27.3228 28.9676C27.3235 28.2124 27.6026 27.4641 28.1657 26.8845C28.6452 26.3918 29.2489 26.1037 29.8755 26.016H29.8763H29.878C30.0116 25.9989 30.1452 25.9896 30.2788 25.9896C31.0264 25.9904 31.7696 26.2743 32.3463 26.8411C32.5282 27.0192 32.819 27.0175 32.9975 26.8335C33.1751 26.6511 33.1718 26.3579 32.9907 26.178C32.2567 25.4535 31.3063 25.0827 30.3549 25.0657C30.4622 24.6216 30.6686 24.2084 30.9578 23.8606C31.3595 23.3782 31.9083 23.0218 32.5645 22.8693C32.7878 22.8191 33.0075 22.7935 33.2265 22.7935C33.6121 22.7935 33.9876 22.8718 34.3343 23.0134C34.2363 23.3594 34.1821 23.7225 34.1821 24.0993C34.1821 24.3549 34.3877 24.562 34.6421 24.562C34.8966 24.562 35.102 24.3549 35.102 24.0993C35.102 23.6935 35.1842 23.3058 35.3279 22.9538C35.5503 22.4151 35.9266 21.9566 36.3993 21.6327C36.8736 21.3088 37.4411 21.1205 38.0575 21.1205C38.9454 21.1205 39.7377 21.5116 40.2806 22.1364C40.738 22.6606 41.0129 23.3458 41.0129 24.0993C41.0129 24.3549 41.2201 24.562 41.4737 24.562C41.7283 24.562 41.9355 24.3549 41.9355 24.0993C41.9355 23.2418 41.6598 22.4466 41.1938 21.8031C41.4324 21.4707 41.7359 21.1878 42.0876 20.9781C42.5273 20.7173 43.0389 20.5665 43.5878 20.5665C44.2202 20.5665 44.8011 20.7651 45.2806 21.1043C45.7618 21.4435 46.1372 21.9243 46.3495 22.4824H46.3487C46.4739 22.814 46.5424 23.1702 46.5424 23.5462C46.5424 23.8019 46.7495 24.0098 47.0033 24.0098C47.257 24.0098 47.4649 23.8019 47.4649 23.5462C47.4649 23.1626 47.4065 22.7936 47.3042 22.4433C47.8506 21.9319 48.5735 21.6421 49.3202 21.6421C49.71 21.6421 50.1058 21.7197 50.4879 21.8841C51.0206 22.1169 51.4486 22.4842 51.7538 22.9326C52.0591 23.3817 52.2383 23.9085 52.2697 24.4538C52.2731 24.5101 52.2756 24.5656 52.2756 24.6217C52.2739 25.0156 52.1969 25.4128 52.0329 25.7988C51.9324 26.0342 52.0405 26.3069 52.2739 26.4074C52.5081 26.5088 52.7778 26.4005 52.8793 26.1653C53.0501 25.7647 53.1482 25.3513 53.1812 24.9363C53.6327 24.9686 54.0724 25.1067 54.4615 25.3385C54.9054 25.6028 55.285 25.9897 55.5439 26.4857C55.7704 26.9196 55.877 27.3806 55.8779 27.8375C55.8779 28.0463 55.8525 28.2534 55.8078 28.4563C55.5321 28.3472 55.2446 28.2739 54.9579 28.2312C54.7076 28.1963 54.4733 28.3736 54.4396 28.6276C54.4032 28.8817 54.5791 29.1159 54.8294 29.1509C55.1194 29.1926 55.4044 29.2762 55.6767 29.4057C55.7241 29.4851 55.7968 29.5507 55.8881 29.5908C55.9439 29.6154 56.0039 29.6275 56.0623 29.6275C56.2322 29.7417 56.3869 29.8704 56.5249 30.011L56.5257 30.0118C57.0787 30.5734 57.3755 31.3312 57.3755 32.1059C57.3754 32.6319 57.2375 33.1638 56.9449 33.6471Z" fill="#F7DECE"/>
<path d="M52.1614 29.5432C51.933 29.3446 51.6879 29.1818 51.4281 29.0676C51.1677 28.9517 50.8937 28.8827 50.6138 28.8827C50.3594 28.8827 50.1538 29.0907 50.1538 29.3472C50.1538 29.6037 50.3594 29.8109 50.6138 29.8109C50.783 29.8109 50.9961 29.8698 51.2227 30.001C51.56 30.1961 51.911 30.5473 52.1647 30.9854C52.4218 31.4243 52.5858 31.9451 52.5842 32.4846C52.5824 33.077 52.3973 33.6958 51.895 34.3103C51.7343 34.5071 51.7614 34.8004 51.9575 34.9632C52.1537 35.1277 52.4446 35.0987 52.6062 34.9027C53.2378 34.1329 53.5075 33.2807 53.5067 32.4846C53.5067 32.0005 53.4086 31.5368 53.248 31.1141C53.0044 30.4808 52.6172 29.9403 52.1614 29.5432Z" fill="#C0CDE2"/>
<path d="M48.9764 27.4401C47.7106 27.4401 46.6949 26.9697 45.9914 26.3551C45.6396 26.0482 45.3706 25.7057 45.194 25.3766C45.0147 25.0485 44.9335 24.7357 44.9352 24.5013C44.9352 24.2457 44.7289 24.0377 44.4752 24.0377C44.2206 24.0377 44.0143 24.2457 44.0143 24.5013C44.0159 24.9369 44.1513 25.3851 44.3847 25.8199C44.6308 26.2733 44.9894 26.7139 45.4435 27.1008C45.3521 27.2287 45.2261 27.3958 45.0637 27.5722C44.7136 27.9583 44.208 28.3853 43.6033 28.6027C43.3657 28.6878 43.2397 28.9529 43.3251 29.1949C43.4105 29.437 43.6727 29.5615 43.9136 29.4761C44.7331 29.1796 45.3453 28.6384 45.7621 28.1772C45.9474 27.9726 46.0911 27.7844 46.1986 27.6344C46.9596 28.0767 47.9007 28.3691 48.9763 28.3691C49.2309 28.3691 49.4363 28.1611 49.4363 27.9054C49.4363 27.649 49.2309 27.4401 48.9764 27.4401Z" fill="#BCCBE1"/>
</svg>
