<svg width="80" height="80" viewBox="0 0 80 80" fill="none" xmlns="http://www.w3.org/2000/svg">
<path d="M57.7295 44.3874H23.0141C19.273 44.3874 16.2104 47.3572 16.2104 50.9921C16.2104 54.6223 19.273 57.5968 23.0141 57.5968H57.7295C61.4705 57.5968 64.5333 54.627 64.5333 50.9921C64.5378 47.3572 61.4752 44.3874 57.7295 44.3874Z" fill="#EDC391"/>
<path d="M58.8504 27.5956C54.3843 20.7474 48.6263 18.4053 40.2611 18.4053C31.896 18.4053 26.138 20.7427 21.6719 27.5956C18.4002 32.6171 17.6102 40.51 18.6186 48.6417C19.59 56.4596 20.3939 60.7504 25.2085 65.1302C29.3911 68.9333 35.0701 69.7537 39.9405 69.7537H40.5818C45.4522 69.7537 51.1358 68.9333 55.3138 65.1302C60.1284 60.7504 60.9324 56.4596 61.9037 48.6417C62.9122 40.51 62.1221 32.6124 58.8504 27.5956Z" fill="#F7DECE"/>
<path d="M47.184 28.3439C47.2491 28.2736 47.3141 28.208 47.3792 28.1377C47.4256 28.0862 47.4721 28.03 47.5186 27.9785C47.6255 27.852 47.7277 27.7255 47.8253 27.5943L47.8671 27.5381C47.9601 27.4117 48.0438 27.2805 48.1274 27.1447C48.1506 27.1072 48.1738 27.0651 48.1971 27.0275C48.2761 26.8917 48.3551 26.7559 48.4295 26.6107C48.4434 26.5873 48.4527 26.5685 48.462 26.5451C48.6386 26.1938 48.7919 25.8143 48.9174 25.4162L48.9314 25.3741C49.187 24.5449 49.3357 23.6221 49.3357 22.5823C49.3357 20.5025 48.5921 18.8583 47.4582 17.617C47.4442 17.603 47.4349 17.5936 47.4256 17.5795C47.3374 17.4859 47.2444 17.3922 47.1515 17.2985L47.0957 17.2423C46.9875 17.1386 46.8759 17.0387 46.7611 16.9425C46.6681 16.8629 46.5752 16.7879 46.4823 16.713C46.459 16.6943 46.4358 16.6802 46.4172 16.6615L46.1105 16.4366C46.0919 16.4272 46.0779 16.4132 46.0593 16.4039C45.6875 16.1509 45.3018 15.926 44.9022 15.734C44.8882 15.7246 44.8697 15.7199 44.8557 15.7106C44.7395 15.6543 44.6233 15.6028 44.5071 15.5513L44.4002 15.5045C44.298 15.4623 44.1958 15.4202 44.0935 15.3827C44.0564 15.3686 44.0145 15.3546 43.9774 15.3405C43.8797 15.303 43.7822 15.2703 43.6892 15.2375L43.5637 15.1953C43.4661 15.1625 43.3732 15.1344 43.2756 15.1063C43.2338 15.0922 43.1919 15.0829 43.1455 15.0688C43.0479 15.0408 42.9503 15.0173 42.8527 14.9939L42.7319 14.9658C42.625 14.9423 42.5181 14.919 42.4159 14.8955C42.3833 14.8908 42.3508 14.8815 42.3183 14.8768C42.0441 14.8159 41.7699 14.7737 41.4957 14.7409C41.4585 14.7362 41.4213 14.7362 41.3842 14.7315C41.2865 14.7222 41.1936 14.7128 41.096 14.7082C41.0402 14.7035 40.9892 14.7035 40.9333 14.6988C40.8544 14.6941 40.78 14.6894 40.7056 14.6894C40.6452 14.6894 40.5848 14.6848 40.5197 14.6848C40.4779 14.6848 40.4361 14.6801 40.3989 14.6801H40.3524C40.1526 14.6801 39.9528 14.6894 39.7576 14.7035C39.7204 14.7082 39.6833 14.7082 39.646 14.7128C39.4462 14.7315 39.251 14.7503 39.0651 14.7831C36.7833 15.1578 34.9383 16.3663 33.7858 17.5468C33.0933 18.2541 32.6518 18.9521 32.5171 19.4533H32.5218C33.9995 19.0738 35.9096 18.7413 38.0381 18.6288C40.9194 18.4274 43.3267 20.0809 43.2106 22.6197C43.1966 22.9242 43.1594 23.21 43.1083 23.4769L43.0943 23.5566C43.0711 23.6597 43.0433 23.7627 43.0154 23.8611C43.0014 23.9079 42.9875 23.9547 42.9782 23.9969C42.9503 24.0812 42.9224 24.1655 42.8899 24.2498C42.8713 24.3014 42.848 24.3529 42.8248 24.4044C42.7923 24.4794 42.7597 24.5496 42.7272 24.6152C42.6993 24.6714 42.6715 24.723 42.6389 24.7745C42.6064 24.8354 42.5692 24.8962 42.532 24.9525C42.4949 25.0087 42.453 25.0649 42.4159 25.1211C42.3833 25.1679 42.3508 25.2148 42.3136 25.2616C42.2532 25.3366 42.1881 25.4068 42.1231 25.4724C42.1045 25.4912 42.0859 25.5146 42.0673 25.5333C41.979 25.6223 41.886 25.702 41.7885 25.7816C41.7699 25.7956 41.7466 25.8097 41.728 25.8237C41.6489 25.8857 41.5667 25.9435 41.4818 25.9971C41.4538 26.0111 41.4306 26.0298 41.4028 26.0439C41.3191 26.0954 41.2354 26.1423 41.1518 26.1844C41.1239 26.1985 41.1006 26.2125 41.0728 26.2219C40.9845 26.2641 40.8915 26.3062 40.7939 26.3437C40.7754 26.3531 40.7521 26.3624 40.7289 26.3671C40.622 26.4093 40.5151 26.4467 40.4036 26.4795C40.3943 26.4842 40.385 26.4842 40.3757 26.4889C39.8738 26.6388 39.3347 26.7044 38.7863 26.7044C37.1319 26.7044 35.417 26.0861 34.4318 25.2008C34.3503 25.1261 34.2445 25.0844 34.1343 25.0836C34.1111 25.0836 34.0879 25.093 34.0693 25.0977C34.0507 25.1024 34.0275 25.1024 34.0089 25.1117C33.981 25.1211 33.9531 25.1305 33.9252 25.1446C33.8787 25.1679 33.8416 25.1961 33.8044 25.2289C33.7951 25.2382 33.7905 25.2476 33.7812 25.2569C33.7486 25.2944 33.7207 25.3413 33.6975 25.3881C33.6928 25.3975 33.6928 25.4022 33.6882 25.4115C33.665 25.4724 33.651 25.5427 33.6603 25.6176C33.7997 27.0322 34.6828 28.8029 36.7833 30.1332C38.7817 31.4026 42.9875 31.4167 45.9803 29.3509L46.064 29.2947C46.1523 29.2291 46.2452 29.1635 46.3335 29.098C46.3707 29.0699 46.4125 29.0371 46.4497 29.0043C46.5798 28.9013 46.7053 28.7935 46.8261 28.6811L47.0074 28.5125C47.0724 28.4609 47.1282 28.4001 47.184 28.3439Z" fill="#312D2D"/>
<path d="M47.184 28.3439C47.2491 28.2736 47.3141 28.208 47.3792 28.1377C47.4256 28.0862 47.4721 28.03 47.5186 27.9785C47.6255 27.852 47.7277 27.7255 47.8253 27.5943L47.8671 27.5381C47.9601 27.4117 48.0438 27.2805 48.1274 27.1447C48.1506 27.1072 48.1738 27.0651 48.1971 27.0275C48.2761 26.8917 48.3551 26.7559 48.4295 26.6107C48.4434 26.5873 48.4527 26.5685 48.462 26.5451C48.6386 26.1938 48.7919 25.8143 48.9174 25.4162L48.9314 25.3741C49.1869 24.5449 49.3357 23.6221 49.3357 22.5823C49.3357 20.5025 48.5921 18.8583 47.4582 17.617C47.4442 17.603 47.4349 17.5936 47.4256 17.5795C47.3374 17.4859 47.2444 17.3922 47.1515 17.2985L47.0957 17.2423C46.9875 17.1386 46.8759 17.0387 46.7611 16.9425C46.6681 16.8629 46.5752 16.7879 46.4823 16.713C46.459 16.6943 46.4358 16.6802 46.4172 16.6615L46.1105 16.4366C46.0919 16.4272 46.0779 16.4132 46.0593 16.4039C45.6875 16.1509 45.3018 15.926 44.9022 15.734C44.8882 15.7246 44.8697 15.7199 44.8557 15.7106C44.7395 15.6543 44.6233 15.6028 44.5071 15.5513L44.4002 15.5045C44.298 15.4623 44.1958 15.4202 44.0935 15.3827C44.0564 15.3686 44.0145 15.3546 43.9774 15.3405C43.8797 15.303 43.7822 15.2703 43.6892 15.2375L43.5637 15.1953C43.4661 15.1625 43.3732 15.1344 43.2756 15.1063C43.2338 15.0922 43.1919 15.0829 43.1455 15.0688C43.0479 15.0408 42.9503 15.0173 42.8527 14.9939L42.7319 14.9658C42.625 14.9423 42.5181 14.919 42.4159 14.8955C42.3833 14.8908 42.3508 14.8815 42.3183 14.8768C42.0441 14.8159 41.7699 14.7737 41.4957 14.7409C41.4585 14.7362 41.4213 14.7362 41.3842 14.7315C41.2865 14.7222 41.1936 14.7128 41.096 14.7082C41.0402 14.7035 40.9892 14.7035 40.9333 14.6988C40.8544 14.6941 40.78 14.6894 40.7056 14.6894C40.6452 14.6894 40.5848 14.6848 40.5197 14.6848C40.4779 14.6848 40.4361 14.6801 40.3989 14.6801H40.3524C40.1526 14.6801 39.9528 14.6894 39.7576 14.7035C39.7204 14.7082 39.6833 14.7082 39.646 14.7128C39.4462 14.7315 39.251 14.7503 39.0651 14.7831C36.7833 15.1578 34.9383 16.3663 33.7858 17.5468C33.0933 18.2541 32.6518 18.9521 32.5171 19.4533H32.5218C33.9995 19.0738 35.9096 18.7413 38.0381 18.6288C40.9194 18.4274 43.3267 20.0809 43.2106 22.6197C43.1966 22.9242 43.1594 23.21 43.1083 23.4769L43.0943 23.5566C43.0711 23.6597 43.0433 23.7627 43.0154 23.8611C43.0014 23.9079 42.9875 23.9547 42.9782 23.9969C42.9503 24.0812 42.9224 24.1655 42.8899 24.2498C42.8713 24.3014 42.848 24.3529 42.8248 24.4044C42.7923 24.4794 42.7597 24.5496 42.7272 24.6152C42.6993 24.6714 42.6715 24.723 42.6389 24.7745C42.6064 24.8354 42.5692 24.8962 42.532 24.9525C42.4949 25.0087 42.453 25.0649 42.4159 25.1211C42.3833 25.1679 42.3508 25.2148 42.3136 25.2616C42.2532 25.3366 42.1881 25.4068 42.1231 25.4724C42.1045 25.4912 42.0859 25.5146 42.0673 25.5333C41.979 25.6223 41.886 25.702 41.7885 25.7816C41.7699 25.7956 41.7466 25.8097 41.728 25.8237C41.6489 25.8857 41.5667 25.9435 41.4818 25.9971C41.4538 26.0111 41.4306 26.0298 41.4028 26.0439C41.3191 26.0954 41.2354 26.1423 41.1518 26.1844C41.1239 26.1985 41.1006 26.2125 41.0728 26.2219C40.9845 26.2641 40.8915 26.3062 40.7939 26.3437C40.7754 26.3531 40.7521 26.3624 40.7289 26.3671C40.622 26.4093 40.5151 26.4467 40.4036 26.4795C40.3943 26.4842 40.385 26.4842 40.3757 26.4889C39.8738 26.6388 39.3347 26.7044 38.7863 26.7044C37.1319 26.7044 35.417 26.0861 34.4318 25.2008C34.3503 25.1261 34.2445 25.0844 34.1343 25.0836C34.1111 25.0836 34.0879 25.093 34.0693 25.0977C34.0507 25.1024 34.0275 25.1024 34.0089 25.1117C33.981 25.1211 33.9531 25.1305 33.9252 25.1446C33.8787 25.1679 33.8416 25.1961 33.8044 25.2289C33.7951 25.2382 33.7905 25.2476 33.7812 25.2569C33.7486 25.2944 33.7207 25.3413 33.6975 25.3881C33.6928 25.3975 33.6928 25.4022 33.6882 25.4115C33.665 25.4724 33.651 25.5427 33.6603 25.6176C33.7997 27.0322 34.6828 28.8029 36.7833 30.1332C38.7817 31.4026 42.9875 31.4167 45.9803 29.3509L46.064 29.2947C46.1523 29.2291 46.2452 29.1635 46.3335 29.098C46.3707 29.0699 46.4125 29.0371 46.4497 29.0043C46.5798 28.9013 46.7053 28.7935 46.8261 28.6811L47.0074 28.5125C47.0724 28.4609 47.1282 28.4001 47.184 28.3439Z" fill="#577CFF"/>
<path d="M42.7948 50.9803C42.7323 50.9545 42.6667 50.9372 42.5996 50.9288H38.2776C38.2125 50.9382 38.1475 50.9523 38.0825 50.9803C37.692 51.1396 37.4736 51.5518 37.6595 51.9828C37.8454 52.4184 38.7051 53.641 40.4386 53.641C42.172 53.641 43.0318 52.4184 43.2177 51.9828C43.3989 51.5471 43.1852 51.1396 42.7948 50.9803Z" fill="#DBA689"/>
<path d="M30.2693 51.4114C31.9325 51.4114 33.2807 50.0042 33.2807 48.2683C33.2807 46.5324 31.9325 45.1253 30.2693 45.1253C28.6061 45.1253 27.2578 46.5324 27.2578 48.2683C27.2578 50.0042 28.6061 51.4114 30.2693 51.4114Z" fill="#312D2D"/>
<path d="M50.5867 51.4114C52.2498 51.4114 53.5981 50.0042 53.5981 48.2683C53.5981 46.5324 52.2498 45.1253 50.5867 45.1253C48.9235 45.1253 47.5752 46.5324 47.5752 48.2683C47.5752 50.0042 48.9235 51.4114 50.5867 51.4114Z" fill="#312D2D"/>
<path d="M44.7669 57.5082C43.0938 58.5106 37.61 58.5106 35.9417 57.5082C34.9796 56.932 33.999 57.8126 34.3987 58.6933C34.7891 59.5599 37.782 61.5647 40.3705 61.5647C42.9544 61.5647 45.9101 59.5599 46.3005 58.6933C46.6955 57.8126 45.7242 56.932 44.7669 57.5082Z" fill="#444444"/>
</svg>
